<svg>	<g><circle cx="50" cy="50" r="42" stroke="black" stroke-width="3" fill="grey" /><text x="50" y="50" font-size="42" text-anchor="middle" >0</text></g>	<g><circle cx="150" cy="50" r="42" stroke="black" stroke-width="3" fill="yellow" /><text x="150" y="50" font-size="42" text-anchor="middle" >7</text></g>	<g><circle cx="250" cy="50" r="42" stroke="black" stroke-width="3" fill="red" /><text x="250" y="50" font-size="42" text-anchor="middle" >0</text></g>	<g><circle cx="350" cy="50" r="42" stroke="black" stroke-width="3" fill="red" /><text x="350" y="50" font-size="42" text-anchor="middle" >0</text></g>	<g><circle cx="50" cy="150" r="42" stroke="black" stroke-width="3" fill="green" /><text x="50" y="150" font-size="42" text-anchor="middle" >7</text></g>	<g><circle cx="150" cy="150" r="42" stroke="black" stroke-width="3" fill="red" /><text x="150" y="150" font-size="42" text-anchor="middle" >7</text></g>	<g><circle cx="250" cy="150" r="42" stroke="black" stroke-width="3" fill="red" /><text x="250" y="150" font-size="42" text-anchor="middle" >0</text></g>	<g><circle cx="350" cy="150" r="42" stroke="black" stroke-width="3" fill="red" /><text x="350" y="150" font-size="42" text-anchor="middle" >0</text></g>	<g><circle cx="50" cy="250" r="42" stroke="black" stroke-width="3" fill="green" /><text x="50" y="250" font-size="42" text-anchor="middle" >7</text></g>	<g><circle cx="150" cy="250" r="42" stroke="black" stroke-width="3" fill="red" /><text x="150" y="250" font-size="42" text-anchor="middle" >7</text></g>	<g><circle cx="250" cy="250" r="42" stroke="black" stroke-width="3" fill="yellow" /><text x="250" y="250" font-size="42" text-anchor="middle" >2</text></g>	<g><circle cx="350" cy="250" r="42" stroke="black" stroke-width="3" fill="red" /><text x="350" y="250" font-size="42" text-anchor="middle" >0</text></g>	<g><circle cx="50" cy="350" r="42" stroke="black" stroke-width="3" fill="green" /><text x="50" y="350" font-size="42" text-anchor="middle" >2</text></g>	<g><circle cx="150" cy="350" r="42" stroke="black" stroke-width="3" fill="red" /><text x="150" y="350" font-size="42" text-anchor="middle" >7</text></g>	<g><circle cx="250" cy="350" r="42" stroke="black" stroke-width="3" fill="red" /><text x="250" y="350" font-size="42" text-anchor="middle" >2</text></g>	<g><circle cx="350" cy="350" r="42" stroke="black" stroke-width="3" fill="red" /><text x="350" y="350" font-size="42" text-anchor="middle" >0</text></g>	<g><circle cx="50" cy="450" r="42" stroke="black" stroke-width="3" fill="green" /><text x="50" y="450" font-size="42" text-anchor="middle" >2</text></g>	<g><circle cx="150" cy="450" r="42" stroke="black" stroke-width="3" fill="red" /><text x="150" y="450" font-size="42" text-anchor="middle" >7</text></g>	<g><circle cx="250" cy="450" r="42" stroke="black" stroke-width="3" fill="red" /><text x="250" y="450" font-size="42" text-anchor="middle" >2</text></g>	<g><circle cx="350" cy="450" r="42" stroke="black" stroke-width="3" fill="yellow" /><text x="350" y="450" font-size="42" text-anchor="middle" >5</text></g>	<g><circle cx="50" cy="550" r="42" stroke="black" stroke-width="3" fill="green" /><text x="50" y="550" font-size="42" text-anchor="middle" >2</text></g>	<g><circle cx="150" cy="550" r="42" stroke="black" stroke-width="3" fill="blue" /><text x="150" y="550" font-size="42" text-anchor="middle" >9</text></g>	<g><circle cx="250" cy="550" r="42" stroke="black" stroke-width="3" fill="red" /><text x="250" y="550" font-size="42" text-anchor="middle" >2</text></g>	<g><circle cx="350" cy="550" r="42" stroke="black" stroke-width="3" fill="yellow" /><text x="350" y="550" font-size="42" text-anchor="middle" >5</text></g>	<g><circle cx="50" cy="650" r="42" stroke="black" stroke-width="3" fill="green" /><text x="50" y="650" font-size="42" text-anchor="middle" >2</text></g>	<g><circle cx="150" cy="650" r="42" stroke="black" stroke-width="3" fill="yellow" /><text x="150" y="650" font-size="42" text-anchor="middle" >9</text></g>	<g><circle cx="250" cy="650" r="42" stroke="black" stroke-width="3" fill="blue" /><text x="250" y="650" font-size="42" text-anchor="middle" >7</text></g>	<g><circle cx="350" cy="650" r="42" stroke="black" stroke-width="3" fill="yellow" /><text x="350" y="650" font-size="42" text-anchor="middle" >5</text></g>	<g><circle cx="50" cy="750" r="42" stroke="black" stroke-width="3" fill="green" /><text x="50" y="750" font-size="42" text-anchor="middle" >5</text></g>	<g><circle cx="150" cy="750" r="42" stroke="black" stroke-width="3" fill="yellow" /><text x="150" y="750" font-size="42" text-anchor="middle" >9</text></g>	<g><circle cx="250" cy="750" r="42" stroke="black" stroke-width="3" fill="blue" /><text x="250" y="750" font-size="42" text-anchor="middle" >7</text></g>	<g><circle cx="350" cy="750" r="42" stroke="black" stroke-width="3" fill="red" /><text x="350" y="750" font-size="42" text-anchor="middle" >5</text></g>	<g><circle cx="50" cy="850" r="42" stroke="black" stroke-width="3" fill="green" /><text x="50" y="850" font-size="42" text-anchor="middle" >5</text></g>	<g><circle cx="150" cy="850" r="42" stroke="black" stroke-width="3" fill="yellow" /><text x="150" y="850" font-size="42" text-anchor="middle" >9</text></g>	<g><circle cx="250" cy="850" r="42" stroke="black" stroke-width="3" fill="yellow" /><text x="250" y="850" font-size="42" text-anchor="middle" >7</text></g>	<g><circle cx="350" cy="850" r="42" stroke="black" stroke-width="3" fill="blue" /><text x="350" y="850" font-size="42" text-anchor="middle" >4</text></g>	<g><circle cx="50" cy="950" r="42" stroke="black" stroke-width="3" fill="green" /><text x="50" y="950" font-size="42" text-anchor="middle" >9</text></g>	<g><circle cx="150" cy="950" r="42" stroke="black" stroke-width="3" fill="red" /><text x="150" y="950" font-size="42" text-anchor="middle" >9</text></g>	<g><circle cx="250" cy="950" r="42" stroke="black" stroke-width="3" fill="yellow" /><text x="250" y="950" font-size="42" text-anchor="middle" >7</text></g>	<g><circle cx="350" cy="950" r="42" stroke="black" stroke-width="3" fill="blue" /><text x="350" y="950" font-size="42" text-anchor="middle" >4</text></g>	<g><circle cx="50" cy="1050" r="42" stroke="black" stroke-width="3" fill="green" /><text x="50" y="1050" font-size="42" text-anchor="middle" >9</text></g>	<g><circle cx="150" cy="1050" r="42" stroke="black" stroke-width="3" fill="blue" /><text x="150" y="1050" font-size="42" text-anchor="middle" >8</text></g>	<g><circle cx="250" cy="1050" r="42" stroke="black" stroke-width="3" fill="yellow" /><text x="250" y="1050" font-size="42" text-anchor="middle" >7</text></g>	<g><circle cx="350" cy="1050" r="42" stroke="black" stroke-width="3" fill="yellow" /><text x="350" y="1050" font-size="42" text-anchor="middle" >4</text></g>	<g><circle cx="50" cy="1150" r="42" stroke="black" stroke-width="3" fill="green" /><text x="50" y="1150" font-size="42" text-anchor="middle" >7</text></g>	<g><circle cx="150" cy="1150" r="42" stroke="black" stroke-width="3" fill="blue" /><text x="150" y="1150" font-size="42" text-anchor="middle" >8</text></g>	<g><circle cx="250" cy="1150" r="42" stroke="black" stroke-width="3" fill="red" /><text x="250" y="1150" font-size="42" text-anchor="middle" >7</text></g>	<g><circle cx="350" cy="1150" r="42" stroke="black" stroke-width="3" fill="yellow" /><text x="350" y="1150" font-size="42" text-anchor="middle" >4</text></g>	<g><circle cx="50" cy="1250" r="42" stroke="black" stroke-width="3" fill="green" /><text x="50" y="1250" font-size="42" text-anchor="middle" >7</text></g>	<g><circle cx="150" cy="1250" r="42" stroke="black" stroke-width="3" fill="yellow" /><text x="150" y="1250" font-size="42" text-anchor="middle" >8</text></g>	<g><circle cx="250" cy="1250" r="42" stroke="black" stroke-width="3" fill="blue" /><text x="250" y="1250" font-size="42" text-anchor="middle" >3</text></g>	<g><circle cx="350" cy="1250" r="42" stroke="black" stroke-width="3" fill="yellow" /><text x="350" y="1250" font-size="42" text-anchor="middle" >4</text></g>	<g><circle cx="50" cy="1350" r="42" stroke="black" stroke-width="3" fill="green" /><text x="50" y="1350" font-size="42" text-anchor="middle" >4</text></g>	<g><circle cx="150" cy="1350" r="42" stroke="black" stroke-width="3" fill="yellow" /><text x="150" y="1350" font-size="42" text-anchor="middle" >8</text></g>	<g><circle cx="250" cy="1350" r="42" stroke="black" stroke-width="3" fill="blue" /><text x="250" y="1350" font-size="42" text-anchor="middle" >3</text></g>	<g><circle cx="350" cy="1350" r="42" stroke="black" stroke-width="3" fill="red" /><text x="350" y="1350" font-size="42" text-anchor="middle" >4</text></g>	<g><circle cx="50" cy="1450" r="42" stroke="black" stroke-width="3" fill="green" /><text x="50" y="1450" font-size="42" text-anchor="middle" >4</text></g>	<g><circle cx="150" cy="1450" r="42" stroke="black" stroke-width="3" fill="yellow" /><text x="150" y="1450" font-size="42" text-anchor="middle" >8</text></g>	<g><circle cx="250" cy="1450" r="42" stroke="black" stroke-width="3" fill="yellow" /><text x="250" y="1450" font-size="42" text-anchor="middle" >3</text></g>	<g><circle cx="350" cy="1450" r="42" stroke="black" stroke-width="3" fill="blue" /><text x="350" y="1450" font-size="42" text-anchor="middle" >6</text></g>	<g><circle cx="50" cy="1550" r="42" stroke="black" stroke-width="3" fill="green" /><text x="50" y="1550" font-size="42" text-anchor="middle" >8</text></g>	<g><circle cx="150" cy="1550" r="42" stroke="black" stroke-width="3" fill="red" /><text x="150" y="1550" font-size="42" text-anchor="middle" >8</text></g>	<g><circle cx="250" cy="1550" r="42" stroke="black" stroke-width="3" fill="yellow" /><text x="250" y="1550" font-size="42" text-anchor="middle" >3</text></g>	<g><circle cx="350" cy="1550" r="42" stroke="black" stroke-width="3" fill="blue" /><text x="350" y="1550" font-size="42" text-anchor="middle" >6</text></g>	<g><circle cx="50" cy="1650" r="42" stroke="black" stroke-width="3" fill="green" /><text x="50" y="1650" font-size="42" text-anchor="middle" >3</text></g>	<g><circle cx="150" cy="1650" r="42" stroke="black" stroke-width="3" fill="red" /><text x="150" y="1650" font-size="42" text-anchor="middle" >8</text></g>	<g><circle cx="250" cy="1650" r="42" stroke="black" stroke-width="3" fill="red" /><text x="250" y="1650" font-size="42" text-anchor="middle" >3</text></g>	<g><circle cx="350" cy="1650" r="42" stroke="black" stroke-width="3" fill="yellow" /><text x="350" y="1650" font-size="42" text-anchor="middle" >6</text></g>	<g><circle cx="50" cy="1750" r="42" stroke="black" stroke-width="3" fill="green" /><text x="50" y="1750" font-size="42" text-anchor="middle" >6</text></g>	<g><circle cx="150" cy="1750" r="42" stroke="black" stroke-width="3" fill="red" /><text x="150" y="1750" font-size="42" text-anchor="middle" >8</text></g>	<g><circle cx="250" cy="1750" r="42" stroke="black" stroke-width="3" fill="red" /><text x="250" y="1750" font-size="42" text-anchor="middle" >3</text></g>	<g><circle cx="350" cy="1750" r="42" stroke="black" stroke-width="3" fill="red" /><text x="350" y="1750" font-size="42" text-anchor="middle" >6</text></g></svg>