<svg>	<g><circle cx="50" cy="50" r="42" stroke="black" stroke-width="3" fill="grey" /><text x="50" y="50" font-size="42" text-anchor="middle" >0</text></g>	<g><circle cx="150" cy="50" r="42" stroke="black" stroke-width="3" fill="yellow" /><text x="150" y="50" font-size="42" text-anchor="middle" >2</text></g>	<g><circle cx="250" cy="50" r="42" stroke="black" stroke-width="3" fill="red" /><text x="250" y="50" font-size="42" text-anchor="middle" >0</text></g>	<g><circle cx="350" cy="50" r="42" stroke="black" stroke-width="3" fill="red" /><text x="350" y="50" font-size="42" text-anchor="middle" >0</text></g>	<g><circle cx="50" cy="150" r="42" stroke="black" stroke-width="3" fill="green" /><text x="50" y="150" font-size="42" text-anchor="middle" >2</text></g>	<g><circle cx="150" cy="150" r="42" stroke="black" stroke-width="3" fill="red" /><text x="150" y="150" font-size="42" text-anchor="middle" >2</text></g>	<g><circle cx="250" cy="150" r="42" stroke="black" stroke-width="3" fill="red" /><text x="250" y="150" font-size="42" text-anchor="middle" >0</text></g>	<g><circle cx="350" cy="150" r="42" stroke="black" stroke-width="3" fill="red" /><text x="350" y="150" font-size="42" text-anchor="middle" >0</text></g>	<g><circle cx="50" cy="250" r="42" stroke="black" stroke-width="3" fill="green" /><text x="50" y="250" font-size="42" text-anchor="middle" >2</text></g>	<g><circle cx="150" cy="250" r="42" stroke="black" stroke-width="3" fill="red" /><text x="150" y="250" font-size="42" text-anchor="middle" >2</text></g>	<g><circle cx="250" cy="250" r="42" stroke="black" stroke-width="3" fill="yellow" /><text x="250" y="250" font-size="42" text-anchor="middle" >1</text></g>	<g><circle cx="350" cy="250" r="42" stroke="black" stroke-width="3" fill="red" /><text x="350" y="250" font-size="42" text-anchor="middle" >0</text></g>	<g><circle cx="50" cy="350" r="42" stroke="black" stroke-width="3" fill="green" /><text x="50" y="350" font-size="42" text-anchor="middle" >1</text></g>	<g><circle cx="150" cy="350" r="42" stroke="black" stroke-width="3" fill="red" /><text x="150" y="350" font-size="42" text-anchor="middle" >2</text></g>	<g><circle cx="250" cy="350" r="42" stroke="black" stroke-width="3" fill="red" /><text x="250" y="350" font-size="42" text-anchor="middle" >1</text></g>	<g><circle cx="350" cy="350" r="42" stroke="black" stroke-width="3" fill="red" /><text x="350" y="350" font-size="42" text-anchor="middle" >0</text></g>	<g><circle cx="50" cy="450" r="42" stroke="black" stroke-width="3" fill="grey" /><text x="50" y="450" font-size="42" text-anchor="middle" >0</text></g>	<g><circle cx="150" cy="450" r="42" stroke="black" stroke-width="3" fill="red" /><text x="150" y="450" font-size="42" text-anchor="middle" >2</text></g>	<g><circle cx="250" cy="450" r="42" stroke="black" stroke-width="3" fill="red" /><text x="250" y="450" font-size="42" text-anchor="middle" >1</text></g>	<g><circle cx="350" cy="450" r="42" stroke="black" stroke-width="3" fill="yellow" /><text x="350" y="450" font-size="42" text-anchor="middle" >2</text></g>	<g><circle cx="50" cy="550" r="42" stroke="black" stroke-width="3" fill="green" /><text x="50" y="550" font-size="42" text-anchor="middle" >2</text></g>	<g><circle cx="150" cy="550" r="42" stroke="black" stroke-width="3" fill="red" /><text x="150" y="550" font-size="42" text-anchor="middle" >2</text></g>	<g><circle cx="250" cy="550" r="42" stroke="black" stroke-width="3" fill="red" /><text x="250" y="550" font-size="42" text-anchor="middle" >1</text></g>	<g><circle cx="350" cy="550" r="42" stroke="black" stroke-width="3" fill="red" /><text x="350" y="550" font-size="42" text-anchor="middle" >2</text></g></svg>